<svg width="1440" height="400" viewBox="0 0 1440 400" fill="none" xmlns="http://www.w3.org/2000/svg">
<g clip-path="url(#clip0_2491_8426)">
<rect width="1440" height="400" fill="white"/>
<rect width="1440" height="400" fill="#25D6E9"/>
<mask id="mask0_2491_8426" style="mask-type:alpha" maskUnits="userSpaceOnUse" x="0" y="0" width="1440" height="400">
<rect width="1440" height="400" fill="#25D6E9"/>
</mask>
<g mask="url(#mask0_2491_8426)">
</g>
<path fill-rule="evenodd" clip-rule="evenodd" d="M1143.49 383C1107.16 383 1074.28 370.06 1050.95 346.585C1048.04 343.781 1046.72 340.816 1047.05 337.818C1047.5 333.796 1050.79 331.413 1051.49 330.949L1074.95 314.019C1077.41 312.104 1080.42 311.045 1083.53 311C1086.99 311 1090.19 312.369 1093.03 315.054C1105.89 326.603 1123.83 332.987 1143.49 332.987C1163.16 332.987 1181.11 326.603 1194.02 315.011C1196.81 312.369 1200.01 311 1203.46 311C1208.05 311 1211.36 313.458 1212.05 314.019L1235.51 330.949C1236.21 331.413 1239.5 333.796 1239.95 337.818C1240.28 340.816 1238.96 343.781 1236.01 346.628C1212.7 370.071 1179.83 383 1143.49 383Z" fill="white"/>
<path fill-rule="evenodd" clip-rule="evenodd" d="M1607 -965C1607 -965 1249.49 105.502 1248.65 107.901L1208.57 241.636C1202.48 260.899 1190.66 275.63 1173.57 284.573C1160.53 291.277 1148.35 292 1143.71 292H1139.91C1129.51 291.859 1119.29 289.318 1110.05 284.573C1092.94 275.612 1081.12 260.899 1075.03 241.636L1034.97 107.901L681 -965H1607Z" fill="white"/>
</g>
<defs>
<clipPath id="clip0_2491_8426">
<rect width="1440" height="400" fill="white"/>
</clipPath>
</defs>
</svg>
