<svg width="96" height="38" viewBox="0 0 96 38" fill="none" xmlns="http://www.w3.org/2000/svg">
<path fill-rule="evenodd" clip-rule="evenodd" d="M47.9994 38C30.181 38 14.0631 31.1741 2.61515 18.78C1.18962 17.2995 0.539605 15.7358 0.703167 14.1538C0.92313 12.0303 2.5376 10.7711 2.88024 10.5272L14.386 1.5905C14.7258 1.29581 16.3459 0 18.5963 0C20.2897 0 21.8563 0.720519 23.2494 2.14182C29.5578 8.23451 38.3577 11.6059 47.9994 11.6059C57.6425 11.6059 66.4411 8.23451 72.7763 2.11503C74.144 0.720519 75.7091 0 77.4025 0C79.6529 0 81.2745 1.29581 81.6143 1.5905L93.1186 10.5272C93.4598 10.7711 95.0771 12.0303 95.2971 14.1538C95.4592 15.7358 94.8106 17.2995 93.3654 18.8012C81.9358 31.1741 65.8178 38 47.9994 38Z" fill="#25D6E9"/>
</svg>
