<svg width="102" height="40" viewBox="0 0 102 40" fill="none" xmlns="http://www.w3.org/2000/svg">
<mask id="mask0_2579_2199" style="mask-type:alpha" maskUnits="userSpaceOnUse" x="0" y="0" width="102" height="40">
<path d="M59.3791 32.9412C59.8193 32.9412 60.1358 33.1819 60.2022 33.2366L62.4502 34.8968C62.5172 34.9421 62.8329 35.1759 62.876 35.5704C62.9078 35.8644 62.7809 36.1548 62.4986 36.4337C60.2652 38.732 57.1155 40 53.6336 40C50.1514 40 47.002 38.732 44.765 36.4296C44.4863 36.1548 44.3594 35.8644 44.3912 35.5704C44.4343 35.1759 44.75 34.9421 44.817 34.8968L47.065 33.2366C47.1314 33.1819 47.4483 32.9412 47.8881 32.9412C48.219 32.9412 48.5249 33.0749 48.7974 33.3389C50.03 34.4708 51.7495 35.0971 53.6336 35.0971C55.5177 35.0971 57.2372 34.4708 58.4753 33.334C58.7423 33.0749 59.0482 32.9412 59.3791 32.9412ZM93.3964 9.41176C98.3745 9.41176 101.719 12.5254 101.719 17.1597V18.6546C101.719 21.0454 100.277 22.0674 99.0415 22.0674L90.0832 22.068C90.1961 24.062 92.1992 24.6011 93.3964 24.6011C94.0628 24.6011 94.6747 24.4958 95.2668 24.2792C95.458 24.207 95.8461 24.096 96.0428 24.096C96.7685 24.096 97.0505 24.7559 97.0985 24.8523L98.2366 27.1597C98.244 27.1686 98.6134 28.0734 97.7734 28.4779C96.4115 29.0963 94.9369 29.4118 93.3964 29.4118C88.652 29.4118 85.074 26.1777 85.074 21.889V17.1597C85.074 12.5254 88.4184 9.41176 93.3964 9.41176ZM33.9063 9.41176C38.8844 9.41176 42.2288 12.5254 42.2288 17.1597V18.6546C42.2288 21.0454 40.7865 22.0674 39.5517 22.0674L30.593 22.068C30.706 24.062 32.709 24.6011 33.9063 24.6011C34.5727 24.6011 35.1845 24.4958 35.7767 24.2792C35.9681 24.207 36.3559 24.096 36.5526 24.096C37.2787 24.096 37.5603 24.7559 37.6083 24.8523L38.7465 27.1597C38.7536 27.1686 39.1232 28.0734 38.2833 28.4779C36.9213 29.0963 35.4468 29.4118 33.9063 29.4118C29.1618 29.4118 25.5838 26.1777 25.5838 21.889V17.1597C25.5838 12.5254 28.9282 9.41176 33.9063 9.41176ZM71.3575 9.41176C76.4273 9.41176 79.8339 12.5605 79.8339 17.2471V21.8015C79.8339 26.14 76.1898 29.4118 71.3575 29.4118C66.5249 29.4118 62.8808 26.14 62.8808 21.8015V17.2471C62.8808 12.5605 66.2874 9.41176 71.3575 9.41176ZM53.176 0C53.6982 0 54.1233 0.400188 54.1233 0.891915V22.1691C54.1233 23.4817 54.7627 24.1509 56.0238 24.1509L57.3099 24.1506C57.8321 24.1506 58.2572 24.5505 58.2572 25.0426V28.5198C58.2572 29.0116 57.8321 29.4118 57.3099 29.4118H55.8895C51.5905 29.4118 48.7018 26.6286 48.7018 22.4865V0.891915C48.7018 0.400188 49.1265 0 49.6491 0H53.176ZM16.7139 10C16.8196 10 16.9241 10.0171 17.0242 10.0509L20.3286 11.1042C20.5688 11.1848 20.7588 11.3473 20.8673 11.5633C20.9758 11.7793 20.9897 12.0221 20.9069 12.2467L16.9964 24.7163C16.4036 26.5124 15.2489 27.8847 13.5801 28.7213C12.3086 29.3444 11.1186 29.4118 10.6661 29.4118H10.294C9.8418 29.4118 8.65184 29.3444 7.38028 28.7213C5.71155 27.8847 4.55683 26.5124 3.96401 24.7163L0.0535186 12.2467C-0.0296241 12.0221 -0.0154064 11.7793 0.0927719 11.5633C0.201568 11.3473 0.391344 11.1848 0.6315 11.1042L3.93588 10.0509C4.03633 10.0171 4.1408 10 4.24651 10C4.64553 10 5.02354 10.2437 5.13913 10.6115L8.63329 22.1094C8.72478 22.4096 8.82863 22.6877 8.94299 22.9373C9.21653 23.542 9.83407 23.9485 10.4801 23.9485C11.126 23.9485 11.7436 23.542 12.0171 22.9373C12.1315 22.6877 12.2356 22.4096 12.3268 22.1094L15.8213 10.6115C15.9369 10.2437 16.3149 10 16.7139 10ZM71.3575 14.1345C69.2238 14.1345 68.1422 15.0823 68.1422 16.9519V22.0947C68.1422 24.1426 70.1634 24.689 71.3575 24.689C72.5516 24.689 74.5726 24.1426 74.5726 22.0947V16.9519C74.5726 15.0823 73.491 14.1345 71.3575 14.1345ZM93.3964 14.2227C91.2238 14.2227 90.1081 15.5007 90.0785 17.3985H96.7143C96.6848 15.5007 95.5691 14.2227 93.3964 14.2227ZM33.9063 14.2227C31.7337 14.2227 30.6179 15.5007 30.5887 17.3985H37.2242C37.1947 15.5007 36.0789 14.2227 33.9063 14.2227Z" fill="white"/>
</mask>
<g mask="url(#mask0_2579_2199)">
<path d="M59.3791 32.9412C59.8193 32.9412 60.1358 33.1819 60.2022 33.2366L62.4502 34.8968C62.5172 34.9421 62.8329 35.1759 62.876 35.5704C62.9078 35.8644 62.7809 36.1548 62.4986 36.4337C60.2652 38.732 57.1155 40 53.6336 40C50.1514 40 47.002 38.732 44.765 36.4296C44.4863 36.1548 44.3594 35.8644 44.3912 35.5704C44.4343 35.1759 44.75 34.9421 44.817 34.8968L47.065 33.2366C47.1314 33.1819 47.4483 32.9412 47.8881 32.9412C48.219 32.9412 48.5249 33.0749 48.7974 33.3389C50.03 34.4708 51.7495 35.0971 53.6336 35.0971C55.5177 35.0971 57.2372 34.4708 58.4753 33.334C58.7423 33.0749 59.0482 32.9412 59.3791 32.9412ZM93.3964 9.41176C98.3745 9.41176 101.719 12.5254 101.719 17.1597V18.6546C101.719 21.0454 100.277 22.0674 99.0415 22.0674L90.0832 22.068C90.1961 24.062 92.1992 24.6011 93.3964 24.6011C94.0628 24.6011 94.6747 24.4958 95.2668 24.2792C95.458 24.207 95.8461 24.096 96.0428 24.096C96.7685 24.096 97.0505 24.7559 97.0985 24.8523L98.2366 27.1597C98.244 27.1686 98.6134 28.0734 97.7734 28.4779C96.4115 29.0963 94.9369 29.4118 93.3964 29.4118C88.652 29.4118 85.074 26.1777 85.074 21.889V17.1597C85.074 12.5254 88.4184 9.41176 93.3964 9.41176ZM33.9063 9.41176C38.8844 9.41176 42.2288 12.5254 42.2288 17.1597V18.6546C42.2288 21.0454 40.7865 22.0674 39.5517 22.0674L30.593 22.068C30.706 24.062 32.709 24.6011 33.9063 24.6011C34.5727 24.6011 35.1845 24.4958 35.7767 24.2792C35.9681 24.207 36.3559 24.096 36.5526 24.096C37.2787 24.096 37.5603 24.7559 37.6083 24.8523L38.7465 27.1597C38.7536 27.1686 39.1232 28.0734 38.2833 28.4779C36.9213 29.0963 35.4468 29.4118 33.9063 29.4118C29.1618 29.4118 25.5838 26.1777 25.5838 21.889V17.1597C25.5838 12.5254 28.9282 9.41176 33.9063 9.41176ZM71.3575 9.41176C76.4273 9.41176 79.8339 12.5605 79.8339 17.2471V21.8015C79.8339 26.14 76.1898 29.4118 71.3575 29.4118C66.5249 29.4118 62.8808 26.14 62.8808 21.8015V17.2471C62.8808 12.5605 66.2874 9.41176 71.3575 9.41176ZM53.176 0C53.6982 0 54.1233 0.400188 54.1233 0.891915V22.1691C54.1233 23.4817 54.7627 24.1509 56.0238 24.1509L57.3099 24.1506C57.8321 24.1506 58.2572 24.5505 58.2572 25.0426V28.5198C58.2572 29.0116 57.8321 29.4118 57.3099 29.4118H55.8895C51.5905 29.4118 48.7018 26.6286 48.7018 22.4865V0.891915C48.7018 0.400188 49.1265 0 49.6491 0H53.176ZM16.7139 10C16.8196 10 16.9241 10.0171 17.0242 10.0509L20.3286 11.1042C20.5688 11.1848 20.7588 11.3473 20.8673 11.5633C20.9758 11.7793 20.9897 12.0221 20.9069 12.2467L16.9964 24.7163C16.4036 26.5124 15.2489 27.8847 13.5801 28.7213C12.3086 29.3444 11.1186 29.4118 10.6661 29.4118H10.294C9.8418 29.4118 8.65184 29.3444 7.38028 28.7213C5.71155 27.8847 4.55683 26.5124 3.96401 24.7163L0.0535186 12.2467C-0.0296241 12.0221 -0.0154064 11.7793 0.0927719 11.5633C0.201568 11.3473 0.391344 11.1848 0.6315 11.1042L3.93588 10.0509C4.03633 10.0171 4.1408 10 4.24651 10C4.64553 10 5.02354 10.2437 5.13913 10.6115L8.63329 22.1094C8.72478 22.4096 8.82863 22.6877 8.94299 22.9373C9.21653 23.542 9.83407 23.9485 10.4801 23.9485C11.126 23.9485 11.7436 23.542 12.0171 22.9373C12.1315 22.6877 12.2356 22.4096 12.3268 22.1094L15.8213 10.6115C15.9369 10.2437 16.3149 10 16.7139 10ZM71.3575 14.1345C69.2238 14.1345 68.1422 15.0823 68.1422 16.9519V22.0947C68.1422 24.1426 70.1634 24.689 71.3575 24.689C72.5516 24.689 74.5726 24.1426 74.5726 22.0947V16.9519C74.5726 15.0823 73.491 14.1345 71.3575 14.1345ZM93.3964 14.2227C91.2238 14.2227 90.1081 15.5007 90.0785 17.3985H96.7143C96.6848 15.5007 95.5691 14.2227 93.3964 14.2227ZM33.9063 14.2227C31.7337 14.2227 30.6179 15.5007 30.5887 17.3985H37.2242C37.1947 15.5007 36.0789 14.2227 33.9063 14.2227Z" fill="#230C87"/>
<path d="M110.966 -8.82373H-9.24683V48.8233H110.966V-8.82373Z" fill="#230C87"/>
</g>
</svg>
