<svg width="24" height="25" viewBox="0 0 24 25" fill="none" xmlns="http://www.w3.org/2000/svg">
<path fill-rule="evenodd" clip-rule="evenodd" d="M12 0.323242C8.741 0.323242 8.33234 0.337056 7.05242 0.395455C5.77516 0.453712 4.90283 0.656585 4.13954 0.95325C3.35044 1.25987 2.68123 1.67019 2.01406 2.33731C1.34695 3.00447 0.936629 3.67368 0.630008 4.46279C0.333343 5.22607 0.13047 6.0984 0.0722133 7.37566C0.0138139 8.65559 0 9.06424 0 12.3233C0 15.5822 0.0138139 15.9909 0.0722133 17.2708C0.13047 18.5481 0.333343 19.4204 0.630008 20.1837C0.936629 20.9728 1.34695 21.642 2.01406 22.3092C2.68123 22.9763 3.35044 23.3866 4.13954 23.6933C4.90283 23.9899 5.77516 24.1928 7.05242 24.251C8.33234 24.3094 8.741 24.3232 12 24.3232C15.259 24.3232 15.6677 24.3094 16.9476 24.251C18.2248 24.1928 19.0972 23.9899 19.8605 23.6933C20.6496 23.3866 21.3188 22.9763 21.9859 22.3092C22.6531 21.642 23.0634 20.9728 23.37 20.1837C23.6667 19.4204 23.8695 18.5481 23.9278 17.2708C23.9862 15.9909 24 15.5822 24 12.3233C24 9.06424 23.9862 8.65559 23.9278 7.37566C23.8695 6.0984 23.6667 5.22607 23.37 4.46279C23.0634 3.67368 22.6531 3.00447 21.9859 2.33731C21.3188 1.67019 20.6496 1.25987 19.8605 0.95325C19.0972 0.656585 18.2248 0.453712 16.9476 0.395455C15.6677 0.337056 15.259 0.323242 12 0.323242ZM12 2.4854C15.2041 2.4854 15.5837 2.49764 16.849 2.55537C18.019 2.60873 18.6544 2.80422 19.0773 2.96855C19.6374 3.18624 20.0371 3.44627 20.457 3.86622C20.877 4.28611 21.137 4.68586 21.3547 5.24599C21.519 5.66883 21.7145 6.30422 21.7679 7.47421C21.8256 8.73956 21.8378 9.11911 21.8378 12.3233C21.8378 15.5274 21.8256 15.9069 21.7679 17.1723C21.7145 18.3423 21.519 18.9777 21.3547 19.4005C21.137 19.9606 20.877 20.3604 20.457 20.7803C20.0371 21.2002 19.6374 21.4602 19.0773 21.6779C18.6544 21.8423 18.019 22.0378 16.849 22.0911C15.5839 22.1488 15.2044 22.1611 12 22.1611C8.79563 22.1611 8.41618 22.1488 7.15097 22.0911C5.98098 22.0378 5.34559 21.8423 4.92274 21.6779C4.36261 21.4602 3.96287 21.2002 3.54297 20.7803C3.12308 20.3604 2.863 19.9606 2.64531 19.4005C2.48097 18.9777 2.28548 18.3423 2.23213 17.1723C2.1744 15.9069 2.16216 15.5274 2.16216 12.3233C2.16216 9.11911 2.1744 8.73956 2.23213 7.47421C2.28548 6.30422 2.48097 5.66883 2.64531 5.24599C2.863 4.68586 3.12303 4.28611 3.54297 3.86622C3.96287 3.44627 4.36261 3.18624 4.92274 2.96855C5.34559 2.80422 5.98098 2.60873 7.15097 2.55537C8.41632 2.49764 8.79587 2.4854 12 2.4854ZM12 16.3232C9.79085 16.3232 8 14.5324 8 12.3233C8 10.1141 9.79085 8.32324 12 8.32324C14.2091 8.32324 16 10.1141 16 12.3233C16 14.5324 14.2091 16.3232 12 16.3232ZM12 6.16108C8.59671 6.16108 5.83784 8.91995 5.83784 12.3233C5.83784 15.7265 8.59671 18.4854 12 18.4854C15.4033 18.4854 18.1622 15.7265 18.1622 12.3233C18.1622 8.91995 15.4033 6.16108 12 6.16108ZM18.4056 7.3576C19.2009 7.3576 19.8456 6.71292 19.8456 5.91763C19.8456 5.12233 19.2009 4.4776 18.4056 4.4776C17.6104 4.4776 16.9656 5.12233 16.9656 5.91763C16.9656 6.71292 17.6104 7.3576 18.4056 7.3576Z" fill="#FAFAFA"/>
</svg>
