<svg width="102" height="40" viewBox="0 0 102 40" fill="none" xmlns="http://www.w3.org/2000/svg">
<mask id="mask0_2587_715" style="mask-type:alpha" maskUnits="userSpaceOnUse" x="0" y="0" width="103" height="40">
<path d="M59.6604 32.9412C60.1005 32.9412 60.4171 33.1819 60.4834 33.2366L62.7315 34.8968C62.7985 34.9421 63.1141 35.1759 63.1572 35.5704C63.189 35.8644 63.0621 36.1548 62.7798 36.4337C60.5464 38.732 57.3967 40 53.9149 40C50.4327 40 47.2833 38.732 45.0462 36.4296C44.7676 36.1548 44.6407 35.8644 44.6725 35.5704C44.7156 35.1759 45.0312 34.9421 45.0982 34.8968L47.3463 33.2366C47.4126 33.1819 47.7295 32.9412 48.1693 32.9412C48.5003 32.9412 48.8061 33.0749 49.0786 33.3389C50.3112 34.4708 52.0308 35.0971 53.9149 35.0971C55.7989 35.0971 57.5185 34.4708 58.7566 33.334C59.0236 33.0749 59.3294 32.9412 59.6604 32.9412ZM93.6777 9.41176C98.6558 9.41176 102 12.5254 102 17.1597V18.6546C102 21.0454 100.558 22.0674 99.3227 22.0674L90.3644 22.068C90.4774 24.062 92.4804 24.6011 93.6777 24.6011C94.344 24.6011 94.9559 24.4958 95.5481 24.2792C95.7392 24.207 96.1273 24.096 96.324 24.096C97.0498 24.096 97.3317 24.7559 97.3797 24.8523L98.5179 27.1597C98.5253 27.1686 98.8946 28.0734 98.0547 28.4779C96.6927 29.0963 95.2182 29.4118 93.6777 29.4118C88.9332 29.4118 85.3552 26.1777 85.3552 21.889V17.1597C85.3552 12.5254 88.6996 9.41176 93.6777 9.41176ZM34.1875 9.41176C39.1656 9.41176 42.51 12.5254 42.51 17.1597V18.6546C42.51 21.0454 41.0677 22.0674 39.8329 22.0674L30.8743 22.068C30.9872 24.062 32.9903 24.6011 34.1875 24.6011C34.8539 24.6011 35.4658 24.4958 36.0579 24.2792C36.2494 24.207 36.6372 24.096 36.8339 24.096C37.5599 24.096 37.8416 24.7559 37.8896 24.8523L39.0277 27.1597C39.0348 27.1686 39.4045 28.0734 38.5645 28.4779C37.2026 29.0963 35.728 29.4118 34.1875 29.4118C29.4431 29.4118 25.8651 26.1777 25.8651 21.889V17.1597C25.8651 12.5254 29.2095 9.41176 34.1875 9.41176ZM71.6388 9.41176C76.7085 9.41176 80.1152 12.5605 80.1152 17.2471V21.8015C80.1152 26.14 76.4711 29.4118 71.6388 29.4118C66.8061 29.4118 63.162 26.14 63.162 21.8015V17.2471C63.162 12.5605 66.5687 9.41176 71.6388 9.41176ZM53.4572 0C53.9795 0 54.4045 0.400188 54.4045 0.891915V22.1691C54.4045 23.4817 55.044 24.1509 56.3051 24.1509L57.5911 24.1506C58.1134 24.1506 58.5384 24.5505 58.5384 25.0426V28.5198C58.5384 29.0116 58.1134 29.4118 57.5911 29.4118H56.1708C51.8717 29.4118 48.983 26.6286 48.983 22.4865V0.891915C48.983 0.400188 49.4078 0 49.9303 0H53.4572ZM16.9952 10C17.1009 10 17.2053 10.0171 17.3055 10.0509L20.6099 11.1042C20.85 11.1848 21.0401 11.3473 21.1486 11.5633C21.2571 11.7793 21.271 12.0221 21.1881 12.2467L17.2777 24.7163C16.6848 26.5124 15.5301 27.8847 13.8614 28.7213C12.5898 29.3444 11.3999 29.4118 10.9474 29.4118H10.5752C10.123 29.4118 8.93309 29.3444 7.66153 28.7213C5.9928 27.8847 4.83808 26.5124 4.24526 24.7163L0.334769 12.2467C0.251626 12.0221 0.265844 11.7793 0.374022 11.5633C0.482818 11.3473 0.672594 11.1848 0.91275 11.1042L4.21713 10.0509C4.31758 10.0171 4.42205 10 4.52776 10C4.92678 10 5.30479 10.2437 5.42038 10.6115L8.91454 22.1094C9.00603 22.4096 9.10988 22.6877 9.22424 22.9373C9.49778 23.542 10.1153 23.9485 10.7613 23.9485C11.4073 23.9485 12.0248 23.542 12.2984 22.9373C12.4127 22.6877 12.5169 22.4096 12.6081 22.1094L16.1025 10.6115C16.2181 10.2437 16.5961 10 16.9952 10ZM71.6388 14.1345C69.505 14.1345 68.4234 15.0823 68.4234 16.9519V22.0947C68.4234 24.1426 70.4446 24.689 71.6388 24.689C72.8329 24.689 74.8538 24.1426 74.8538 22.0947V16.9519C74.8538 15.0823 73.7722 14.1345 71.6388 14.1345ZM93.6777 14.2227C91.5051 14.2227 90.3893 15.5007 90.3598 17.3985H96.9956C96.966 15.5007 95.8503 14.2227 93.6777 14.2227ZM34.1875 14.2227C32.0149 14.2227 30.8992 15.5007 30.87 17.3985H37.5055C37.4759 15.5007 36.3602 14.2227 34.1875 14.2227Z" fill="white"/>
</mask>
<g mask="url(#mask0_2587_715)">
<path d="M59.6604 32.9412C60.1005 32.9412 60.4171 33.1819 60.4834 33.2366L62.7315 34.8968C62.7985 34.9421 63.1141 35.1759 63.1572 35.5704C63.189 35.8644 63.0621 36.1548 62.7798 36.4337C60.5464 38.732 57.3967 40 53.9149 40C50.4327 40 47.2833 38.732 45.0462 36.4296C44.7676 36.1548 44.6407 35.8644 44.6725 35.5704C44.7156 35.1759 45.0312 34.9421 45.0982 34.8968L47.3463 33.2366C47.4126 33.1819 47.7295 32.9412 48.1693 32.9412C48.5003 32.9412 48.8061 33.0749 49.0786 33.3389C50.3112 34.4708 52.0308 35.0971 53.9149 35.0971C55.7989 35.0971 57.5185 34.4708 58.7566 33.334C59.0236 33.0749 59.3294 32.9412 59.6604 32.9412ZM93.6777 9.41176C98.6558 9.41176 102 12.5254 102 17.1597V18.6546C102 21.0454 100.558 22.0674 99.3227 22.0674L90.3644 22.068C90.4774 24.062 92.4804 24.6011 93.6777 24.6011C94.344 24.6011 94.9559 24.4958 95.5481 24.2792C95.7392 24.207 96.1273 24.096 96.324 24.096C97.0498 24.096 97.3317 24.7559 97.3797 24.8523L98.5179 27.1597C98.5253 27.1686 98.8946 28.0734 98.0547 28.4779C96.6927 29.0963 95.2182 29.4118 93.6777 29.4118C88.9332 29.4118 85.3552 26.1777 85.3552 21.889V17.1597C85.3552 12.5254 88.6996 9.41176 93.6777 9.41176ZM34.1875 9.41176C39.1656 9.41176 42.51 12.5254 42.51 17.1597V18.6546C42.51 21.0454 41.0677 22.0674 39.8329 22.0674L30.8743 22.068C30.9872 24.062 32.9903 24.6011 34.1875 24.6011C34.8539 24.6011 35.4658 24.4958 36.0579 24.2792C36.2494 24.207 36.6372 24.096 36.8339 24.096C37.5599 24.096 37.8416 24.7559 37.8896 24.8523L39.0277 27.1597C39.0348 27.1686 39.4045 28.0734 38.5645 28.4779C37.2026 29.0963 35.728 29.4118 34.1875 29.4118C29.4431 29.4118 25.8651 26.1777 25.8651 21.889V17.1597C25.8651 12.5254 29.2095 9.41176 34.1875 9.41176ZM71.6388 9.41176C76.7085 9.41176 80.1152 12.5605 80.1152 17.2471V21.8015C80.1152 26.14 76.4711 29.4118 71.6388 29.4118C66.8061 29.4118 63.162 26.14 63.162 21.8015V17.2471C63.162 12.5605 66.5687 9.41176 71.6388 9.41176ZM53.4572 0C53.9795 0 54.4045 0.400188 54.4045 0.891915V22.1691C54.4045 23.4817 55.044 24.1509 56.3051 24.1509L57.5911 24.1506C58.1134 24.1506 58.5384 24.5505 58.5384 25.0426V28.5198C58.5384 29.0116 58.1134 29.4118 57.5911 29.4118H56.1708C51.8717 29.4118 48.983 26.6286 48.983 22.4865V0.891915C48.983 0.400188 49.4078 0 49.9303 0H53.4572ZM16.9952 10C17.1009 10 17.2053 10.0171 17.3055 10.0509L20.6099 11.1042C20.85 11.1848 21.0401 11.3473 21.1486 11.5633C21.2571 11.7793 21.271 12.0221 21.1881 12.2467L17.2777 24.7163C16.6848 26.5124 15.5301 27.8847 13.8614 28.7213C12.5898 29.3444 11.3999 29.4118 10.9474 29.4118H10.5752C10.123 29.4118 8.93309 29.3444 7.66153 28.7213C5.9928 27.8847 4.83808 26.5124 4.24526 24.7163L0.334769 12.2467C0.251626 12.0221 0.265844 11.7793 0.374022 11.5633C0.482818 11.3473 0.672594 11.1848 0.91275 11.1042L4.21713 10.0509C4.31758 10.0171 4.42205 10 4.52776 10C4.92678 10 5.30479 10.2437 5.42038 10.6115L8.91454 22.1094C9.00603 22.4096 9.10988 22.6877 9.22424 22.9373C9.49778 23.542 10.1153 23.9485 10.7613 23.9485C11.4073 23.9485 12.0248 23.542 12.2984 22.9373C12.4127 22.6877 12.5169 22.4096 12.6081 22.1094L16.1025 10.6115C16.2181 10.2437 16.5961 10 16.9952 10ZM71.6388 14.1345C69.505 14.1345 68.4234 15.0823 68.4234 16.9519V22.0947C68.4234 24.1426 70.4446 24.689 71.6388 24.689C72.8329 24.689 74.8538 24.1426 74.8538 22.0947V16.9519C74.8538 15.0823 73.7722 14.1345 71.6388 14.1345ZM93.6777 14.2227C91.5051 14.2227 90.3893 15.5007 90.3598 17.3985H96.9956C96.966 15.5007 95.8503 14.2227 93.6777 14.2227ZM34.1875 14.2227C32.0149 14.2227 30.8992 15.5007 30.87 17.3985H37.5055C37.4759 15.5007 36.3602 14.2227 34.1875 14.2227Z" fill="#25D6E9"/>
<path d="M111.248 -8.82422H-8.96558V48.8228H111.248V-8.82422Z" fill="#25D6E9"/>
</g>
</svg>
