<svg width="24" height="24" viewBox="0 0 24 24" fill="none" xmlns="http://www.w3.org/2000/svg">
<path fill-rule="evenodd" clip-rule="evenodd" d="M23.4985 6.64023C23.2225 5.60094 22.4092 4.78254 21.3766 4.50478C19.505 4 12 4 12 4C12 4 4.49495 4 2.62336 4.50478C1.59082 4.78254 0.777545 5.60094 0.501545 6.64023C0 8.52384 0 12.454 0 12.454C0 12.454 0 16.384 0.501545 18.2677C0.777545 19.307 1.59082 20.1254 2.62336 20.4033C4.49495 20.908 12 20.908 12 20.908C12 20.908 19.505 20.908 21.3766 20.4033C22.4092 20.1254 23.2225 19.307 23.4985 18.2677C24 16.384 24 12.454 24 12.454C24 12.454 24 8.52384 23.4985 6.64023Z" fill="#FAFAFA"/>
<path fill-rule="evenodd" clip-rule="evenodd" d="M9.53918 8.88672L15.8168 12.4524L9.53918 16.0177V8.88672Z" fill="#230C87"/>
</svg>
