<svg width="24" height="24" viewBox="0 0 24 24" fill="none" xmlns="http://www.w3.org/2000/svg">
<path d="M7.54752 21.5C16.6042 21.5 21.5578 13.9972 21.5578 7.49077C21.5578 7.27767 21.5578 7.06552 21.5434 6.85434C22.507 6.15734 23.3389 5.29434 24 4.30572C23.1013 4.7039 22.148 4.96503 21.1718 5.08039C22.1998 4.46505 22.9691 3.49724 23.3366 2.35706C22.3701 2.93058 21.3126 3.33477 20.2099 3.55218C18.6836 1.92931 16.2583 1.53211 14.294 2.5833C12.3296 3.63449 11.3148 5.87264 11.8186 8.04273C7.85942 7.84427 4.1707 5.97439 1.6704 2.89847C0.363478 5.1482 1.03103 8.02628 3.19488 9.47111C2.41127 9.44789 1.64475 9.23652 0.96 8.85483C0.96 8.87499 0.96 8.89611 0.96 8.91723C0.960641 11.261 2.61288 13.2797 4.9104 13.7438C4.18547 13.9414 3.42488 13.9703 2.68704 13.8282C3.33211 15.8339 5.18071 17.2079 7.28736 17.2475C5.54375 18.6177 3.38982 19.3616 1.17216 19.3594C0.780387 19.3586 0.388996 19.3349 0 19.2883C2.25181 20.7333 4.87192 21.4997 7.54752 21.4962" fill="#FAFAFA"/>
</svg>
