<svg width="24" height="24" viewBox="0 0 24 24" fill="none" xmlns="http://www.w3.org/2000/svg">
<rect width="24" height="24" fill="#230C87"/>
<path d="M22.6753 2.12251e-08H1.32375C0.592458 0.000388238 -0.000129491 0.593395 2.12251e-08 1.32469V22.6763C0.000517529 23.4075 0.593449 24 1.32469 24H12.8203V14.7188H9.70312V11.0859H12.8203V8.41406C12.8203 5.31422 14.7134 3.62625 17.4788 3.62625C18.8032 3.62625 19.9416 3.72492 20.2734 3.76898V7.00781H18.3605C16.8605 7.00781 16.5703 7.72242 16.5703 8.77102V11.0859H20.1677L19.699 14.7188H16.5703V24H22.6753C23.0267 24.0001 23.3636 23.8605 23.6121 23.6121C23.8605 23.3636 24.0001 23.0267 24 22.6753V1.32375C23.9996 0.592458 23.4066 -0.000129491 22.6753 2.12251e-08Z" fill="#FAFAFA"/>
</svg>
